# xmcd
#
# Track frame offsets: 
#        150
#        11191
#        28057
#        45162
#        61051
#        77482
#        92276
#        109881
#        123368
#        139791
#        158539
#
# Disc length: 2285 seconds
#
# Revision: 0
# Processed by: cddbd v1.5.2PL0 Copyright (c) Steve Scherf et al.
# Submitted via: ExactAudioCopy v0.99pb4
#
DISCID=7808eb0b
DTITLE=Karen Peck and New River - Journey Of Joy
DYEAR=2007
DGENRE=Gospel
TTITLE0=Hey
TTITLE1=Last Night
TTITLE2=Journey of Joy
TTITLE3='Round the Kitchen Table
TTITLE4=Then He Moved
TTITLE5=When the Stone Rolled Away
TTITLE6=Wispered Prayers
TTITLE7=Faith
TTITLE8=Behind The Line of Grace
TTITLE9=Hold On
TTITLE10=Where the Dirt Road Stops
EXTD=
EXTT0=
EXTT1=
EXTT2=
EXTT3=
EXTT4=
EXTT5=
EXTT6=
EXTT7=
EXTT8=
EXTT9=
EXTT10=
PLAYORDER=
